<svg xmlns="http://www.w3.org/2000/svg" viewBox="0 0 667.86 89.09"><defs><style>.cls-1,.cls-2{fill:#3b4096;}.cls-2{stroke:#3b4096;stroke-miterlimit:10;stroke-width:3px;}</style></defs><title>アセット 1</title><g id="レイヤー_2" data-name="レイヤー 2"><g id="レイヤー_1-2" data-name="レイヤー 1"><path class="cls-1" d="M19.3,20.39l40.8.5,9-10.9a30.31,30.31,0,0,1-8.5-.3C57,8.89,55.4,7.39,53,5s-11.7-9.7-20-.4-13.7,15.8-13.7,15.8"/><path class="cls-1" d="M0,42l9.3-10.8H29.5v43a4.12,4.12,0,0,0,4,4.2h.4a4.34,4.34,0,0,0,4.6-4V31.19h9.3c1.5,0,3.3-.9,5-2.7,2-2.1,7.2-8,7.2-8H73.2l-13.4,16c-.7.7-5.1,5.5-11.5,5.5v33.1c0,6-3.9,14-14.6,14-9.5,0-13.9-8.5-13.9-13.2v-34L0,42"/><polygon class="cls-1" points="54 49.4 54 48.59 58.9 48.59 58.9 49.4 56.9 49.4 56.9 55.3 56.1 55.3 56.1 49.4 54 49.4"/><path class="cls-1" d="M59.1,50.59a3.7,3.7,0,0,1,.5-1.1,3.45,3.45,0,0,1,.9-.8,2.77,2.77,0,0,1,1.3-.3,3.08,3.08,0,0,1,1.3.3,2.36,2.36,0,0,1,.9.8,3.88,3.88,0,0,1,.6,1.1,4.33,4.33,0,0,1,0,2.6,3.7,3.7,0,0,1-.5,1.1,2.83,2.83,0,0,1-3.9.5,1.21,1.21,0,0,1-.5-.5,3.7,3.7,0,0,1-.5-1.1,5.85,5.85,0,0,1-.2-1.3,3,3,0,0,1,.1-1.3m.7,2.3a3.55,3.55,0,0,0,.4.9,1.34,1.34,0,0,0,.7.6,2.12,2.12,0,0,0,1.9,0,4.35,4.35,0,0,0,.7-.6,3.55,3.55,0,0,0,.4-.9,5.05,5.05,0,0,0,0-2,3.55,3.55,0,0,0-.4-.9,1.93,1.93,0,0,0-2.6-.6,4.35,4.35,0,0,0-.7.6,3.55,3.55,0,0,0-.4.9,3.75,3.75,0,0,0-.1,1,3.08,3.08,0,0,0,.1,1"/><polygon class="cls-1" points="67.8 55.3 66.9 55.3 66.9 52.59 64.6 48.59 65.5 48.59 67.4 51.8 69.2 48.59 70.1 48.59 67.8 52.59 67.8 55.3"/><path class="cls-1" d="M73,48.59l2.4,6.6h-.9l-.7-2H71.2l-.7,2h-.8l2.4-6.6Zm.6,3.9-1-3.1h0l-1,3.1Z"/><polygon class="cls-1" points="77.1 48.59 79 54.2 81 48.59 82.1 48.59 82.1 55.3 81.3 55.3 81.3 49.8 81.3 49.8 79.4 55.3 78.7 55.3 76.8 49.8 76.8 49.8 76.8 55.3 76 55.3 76 48.59 77.1 48.59"/><path class="cls-1" d="M86,48.59l2.4,6.6h-.9l-.7-2H84.2l-.7,2h-.8l2.4-6.6Zm.6,3.9-1-3.1h0l-1,3.1Z"/><path class="cls-1" d="M57.3,59.39a2.39,2.39,0,0,1,1.4.5,2.56,2.56,0,0,1,0,2.9,1.55,1.55,0,0,1-1.4.5H55.4V66h-.8v-6.6Zm-.3,3.2a1.07,1.07,0,0,0,1.3-.8v-.3a1.4,1.4,0,0,0-.3-.9,1.69,1.69,0,0,0-1-.3H55.4v2.4l1.6-.1Z"/><path class="cls-1" d="M60.6,61.29v1h0a2.76,2.76,0,0,1,.7-.9,1.69,1.69,0,0,1,1-.3v.8a1.48,1.48,0,0,0-.7.1,1,1,0,0,0-.5.4l-.3.6v3h-.7v-4.8h.5Z"/><path class="cls-1" d="M65.6,65.79a2.17,2.17,0,0,1-2.2.2,1.79,1.79,0,0,1-.7-.5,2,2,0,0,1-.4-.8c-.1-.3-.1-.7-.2-1a1.8,1.8,0,0,1,.2-1,3,3,0,0,1,.4-.8,1.79,1.79,0,0,1,.7-.5,2.35,2.35,0,0,1,.8-.2,1.69,1.69,0,0,1,1,.3,1.34,1.34,0,0,1,.6.7,1.61,1.61,0,0,1,.3.9,2.77,2.77,0,0,1,.1.9H62.9a1.27,1.27,0,0,0,.1.6.76.76,0,0,0,.2.5l.4.4a1.27,1.27,0,0,0,.6.1,1.45,1.45,0,0,0,.7-.2,1.61,1.61,0,0,0,.4-.7H66a1.19,1.19,0,0,1-.4,1.1m-.2-3.1c-.1-.2-.2-.3-.3-.5a1.38,1.38,0,0,0-.4-.3h-.5a.9.9,0,0,0-.5.1c-.1.1-.3.2-.4.3s-.2.3-.3.4a.9.9,0,0,0-.1.5h2.5c.1-.2,0-.3,0-.5"/><path class="cls-1" d="M66.6,62v-.7h.7v-.7a1.4,1.4,0,0,1,.3-.9,1.61,1.61,0,0,1,.9-.3h.4v.7c-.1,0-.1-.1-.2-.1h-.2a.6.6,0,0,0-.4.1c-.1.1-.2.3-.1.4v.7h.9v.7h-.8V66h-.7v-4.1h-.8Z"/><path class="cls-1" d="M72.7,65.79a1.94,1.94,0,0,1-2.8-.3,2,2,0,0,1-.4-.8,3.4,3.4,0,0,1-.1-1,3.55,3.55,0,0,1,.2-1,2,2,0,0,1,.4-.8,1.79,1.79,0,0,1,.7-.5,2.35,2.35,0,0,1,.8-.2,1.69,1.69,0,0,1,1,.3,1.34,1.34,0,0,1,.6.7,1.61,1.61,0,0,1,.3.9,2.77,2.77,0,0,1,.1.9H70.2a1.27,1.27,0,0,0,.1.6.76.76,0,0,0,.2.5c.1.2.3.3.4.4a1.27,1.27,0,0,0,.6.1,1.45,1.45,0,0,0,.7-.2,1.61,1.61,0,0,0,.4-.7h.7a1.74,1.74,0,0,1-.6,1.1m-.2-3.1a1.38,1.38,0,0,0-.3-.4c-.1-.1-.3-.2-.4-.3a.75.75,0,0,0-.5-.1.9.9,0,0,0-.5.1,2.34,2.34,0,0,0-.7.7.9.9,0,0,0-.1.5h2.5a.45.45,0,0,0,0-.5"/><path class="cls-1" d="M76.8,62.09a1.08,1.08,0,0,0-.8-.2,1.25,1.25,0,0,0-1.1.6,1.42,1.42,0,0,0-.2.6c0,.2-.1.5-.1.7a1.27,1.27,0,0,0,.1.6,2.19,2.19,0,0,0,.3.5.78.78,0,0,0,.4.4,1.27,1.27,0,0,0,.6.1,1.14,1.14,0,0,0,.8-.3,1.88,1.88,0,0,0,.4-.9h.7a2.51,2.51,0,0,1-.6,1.4,2.35,2.35,0,0,1-1.3.5,1.49,1.49,0,0,1-.9-.2,1.79,1.79,0,0,1-.7-.5,1.23,1.23,0,0,1-.4-.8,5.05,5.05,0,0,1,0-2,2,2,0,0,1,.4-.8A2.09,2.09,0,0,1,76,61a1.7,1.7,0,0,1,.7.1l.6.3a1,1,0,0,1,.4.5,1.85,1.85,0,0,1,.2.7h-.7a.89.89,0,0,0-.4-.5"/><path class="cls-1" d="M80.7,61.29V62h-.9v3.2c0,.1,0,.1.1.1a.35.35,0,0,0,.2.1h.6v.7H79.6c-.1,0-.2-.1-.3-.2s-.2-.2-.2-.3a4.33,4.33,0,0,0-.1-.5v-3h-.7v-.7h.8v-1.5h.7v1.4Z"/><path class="cls-1" d="M84.4,66.09v-.8h0a1.34,1.34,0,0,1-.6.7,3.09,3.09,0,0,1-.8.2,1.48,1.48,0,0,1-.7-.1,1.76,1.76,0,0,1-.5-.4,1.42,1.42,0,0,1-.2-.6,1.7,1.7,0,0,1-.1-.7v-3.2h.7v3.2a1.45,1.45,0,0,0,.2.7.91.91,0,0,0,.7.3,1.27,1.27,0,0,0,.6-.1,1.38,1.38,0,0,0,.4-.3.76.76,0,0,0,.2-.5,1.27,1.27,0,0,0,.1-.6v-2.7h.7V66l-.7.1Z"/><path class="cls-1" d="M89.3,66.19c-.2,0-.3,0-.4-.2a.73.73,0,0,1-.2-.6,4.35,4.35,0,0,1-.7.6,2.92,2.92,0,0,1-.9.2,1.27,1.27,0,0,1-.6-.1,1.12,1.12,0,0,1-.8-.7,1.27,1.27,0,0,1-.1-.6,1.7,1.7,0,0,1,.1-.7,1.38,1.38,0,0,1,.3-.4.76.76,0,0,1,.5-.2l.6-.2.6-.1a.9.9,0,0,0,.5-.1c.1,0,.2-.1.3-.2a.37.37,0,0,0,.1-.3.6.6,0,0,0-.1-.4c-.1-.1-.1-.2-.2-.2a.37.37,0,0,0-.3-.1h-.3a1.45,1.45,0,0,0-.7.2.91.91,0,0,0-.3.7H86a2.35,2.35,0,0,1,.2-.8,1,1,0,0,1,.4-.5,1.42,1.42,0,0,1,.6-.2,1.7,1.7,0,0,1,.7-.1h.6a.76.76,0,0,1,.5.2.78.78,0,0,1,.4.4.88.88,0,0,1,.1.7v2.8c0,.1.1.1.2.1h.2v.7a1.27,1.27,0,0,1-.6.1m-1-2.4-.5.1a.9.9,0,0,0-.5.1c-.2,0-.3.1-.4.1s-.2.1-.3.3a.75.75,0,0,0-.1.5.37.37,0,0,0,.1.3.22.22,0,0,0,.2.2.37.37,0,0,0,.3.1h.3a1.27,1.27,0,0,0,.6-.1,1.38,1.38,0,0,0,.4-.3c.1-.1.2-.2.2-.3s.1-.2.1-.4v-.8a.76.76,0,0,0-.4.2"/><rect class="cls-1" x="90.5" y="59.39" width="0.7" height="6.6"/><path class="cls-1" d="M58.9,76.39a2,2,0,0,1-1.8.6,2.79,2.79,0,0,1-1.8-.6,2.64,2.64,0,0,1-.7-1.9v-4.2h.8v4.2a2.3,2.3,0,0,0,.4,1.4,1.9,1.9,0,0,0,1.3.5,1.46,1.46,0,0,0,1.2-.5,2.3,2.3,0,0,0,.4-1.4v-4.2h.8v4.2a2.31,2.31,0,0,1-.6,1.9"/><path class="cls-1" d="M61,72.09v.8h0a1.69,1.69,0,0,1,1.4-.9,1.48,1.48,0,0,1,.7.1,1.76,1.76,0,0,1,.5.4,1.42,1.42,0,0,1,.2.6c0,.2.1.5.1.7v3.1h-.7v-3.3a1.45,1.45,0,0,0-.2-.7.91.91,0,0,0-.7-.3,1.27,1.27,0,0,0-.6.1,1.38,1.38,0,0,0-.4.3.76.76,0,0,0-.2.5,1.27,1.27,0,0,0-.1.6v2.8h-.7v-4.8Z"/><path class="cls-1" d="M65,70.19h.7v1H65Zm.8,6.7h-.7v-4.8h.7Z"/><polygon class="cls-1" points="67.9 76.89 66.3 72.09 67.1 72.09 68.3 76.09 68.3 76.09 69.6 72.09 70.3 72.09 68.7 76.89 67.9 76.89"/><path class="cls-1" d="M73.9,76.59a1.92,1.92,0,0,1-1.2.4,1.49,1.49,0,0,1-.9-.2,1.79,1.79,0,0,1-.7-.5,2,2,0,0,1-.4-.8c-.1-.3-.1-.7-.2-1a3.55,3.55,0,0,1,.2-1,2,2,0,0,1,.4-.8,1.79,1.79,0,0,1,.7-.5,2.35,2.35,0,0,1,.8-.2,1.69,1.69,0,0,1,1,.3,1.34,1.34,0,0,1,.6.7,1.61,1.61,0,0,1,.3.9,2.77,2.77,0,0,1,.1.9H71.3a1.27,1.27,0,0,0,.1.6.76.76,0,0,0,.2.5c.1.2.3.3.4.4a1.27,1.27,0,0,0,.6.1,1.45,1.45,0,0,0,.7-.2,1,1,0,0,0,.4-.7h.7a1.07,1.07,0,0,1-.5,1.1m-.1-3a1.77,1.77,0,0,0-.7-.7.9.9,0,0,0-.5-.1.75.75,0,0,0-.5.1c-.1.1-.3.2-.4.3s-.2.3-.3.4a.9.9,0,0,0-.1.5h2.5c.1-.2,0-.4,0-.5"/><path class="cls-1" d="M76,72.09v1h0a2.76,2.76,0,0,1,.7-.9,1.69,1.69,0,0,1,1-.3v.8a1.48,1.48,0,0,0-.7.1,1,1,0,0,0-.5.4l-.3.6a2.49,2.49,0,0,0-.1.8v2.3h-.7v-4.8Z"/><path class="cls-1" d="M78.6,75.79l.3.3c.1.1.2.1.4.2s.3.1.4.1h.4a.37.37,0,0,0,.3-.1.68.68,0,0,0,.4-.6c0-.2-.1-.4-.2-.4A3.33,3.33,0,0,0,80,75a6.37,6.37,0,0,0-.7-.2,1.85,1.85,0,0,1-.7-.2,1,1,0,0,1-.5-.4,1.45,1.45,0,0,1-.2-.7.73.73,0,0,1,.2-.6.78.78,0,0,1,.4-.4c.2-.1.3-.2.5-.2a1.27,1.27,0,0,1,.6-.1,1.7,1.7,0,0,1,.7.1,1.42,1.42,0,0,1,.6.2c.2.1.3.3.4.4a1.85,1.85,0,0,1,.2.7h-.7a.6.6,0,0,0-.1-.4c-.1-.1-.1-.2-.2-.2a.37.37,0,0,0-.3-.1h-.6a.37.37,0,0,0-.3.1.22.22,0,0,0-.2.2c-.4-.1-.4,0-.4.1a.37.37,0,0,0,.1.3c.1.1.2.2.3.2s.3.1.5.2l.5.1a.76.76,0,0,1,.5.2c.2.1.3.1.5.2a1.38,1.38,0,0,1,.3.4,1.27,1.27,0,0,1,.1.6,1.3,1.3,0,0,1-1.2,1.4c-.2,0-.4.1-.7.1a1.7,1.7,0,0,1-.7-.1.86.86,0,0,1-.6-.3,1,1,0,0,1-.4-.5,1.88,1.88,0,0,1-.2-.8h.7a1.69,1.69,0,0,1,.2.5"/><path class="cls-1" d="M82.2,70.19h.7v1h-.7Zm.8,6.7h-.7v-4.8H83Z"/><path class="cls-1" d="M86,72.09v.7h-.9V76a.1.1,0,0,0,.1.1H86v.8H85c-.1,0-.2-.1-.3-.2s-.2-.2-.2-.3-.1-.3-.1-.5v-3.1h-.7v-.7h.7v-1.4h.7v1.4Z"/><path class="cls-1" d="M88.3,78.09c-.1.1-.2.3-.3.4s-.2.2-.3.2a.6.6,0,0,1-.4.1H87l-.3-.1V78l.2.1a.47.47,0,0,0,.6-.1c.1-.1.2-.2.2-.3l.2-.8-1.8-4.8h.8L88.2,76h0l1.2-3.9h.7l-1.9,5.4c.2.2.1.4.1.6"/><path class="cls-2" d="M127.24,33.94h16.43v9.28h-2.78V36.88h-30v6.35h-2.7V33.94h16.19V29l3.81.32c-.08.32-.32.56-.87.63l-.08,4ZM111.29,75V57.67h29.44V74.89h-2.86V73.46H114v1.67h-2.7V75Zm13.09-14.76H114v4h10.4ZM114,70.76h10.4V66.63H114ZM135.58,41v.69H116.29V41Zm-.45,12.1H116.74V46.6h18.39Zm-15.91-5.54v4.55h13.44V47.58Zm18.66,16.67v-4H127.24v4Zm-10.71,6.51H137.8V66.63H127.17Z"/><path class="cls-2" d="M182.55,40.92l3.81.32c-.08.32-.32.56-.87.71v32.3h-2.94v-4H154.38v4.21h-2.86V40.92l3.73.32c-.08.32-.24.56-.87.71V66.87h12.38V30l3.81.32c-.08.32-.32.56-.87.71V66.87h12.85V40.92Z"/><path class="cls-2" d="M204.85,64.57a.75.75,0,0,1-.87.4,54.92,54.92,0,0,1-10.08,9.44,19.58,19.58,0,0,0-2.22-2.22c3.57-2.3,7.7-6,9.76-9.13Zm-7.94-6.74h33.17v3h-17.7V75h-2.94V60.84H197v1.43h-2.94V33.39l3.73.32c-.08.32-.24.56-.87.63V57.83ZM225,30.93V53.86H201.6V30.93Zm-2.78,6.82V33.46H204.37v4.28Zm0,6.74V40.21H204.37v4.28Zm0,6.82V47H204.37v4.36Zm5.32,23.09a93.38,93.38,0,0,0-10.16-9.68l2.3-1.75A94.81,94.81,0,0,1,230,72.43Z"/><path class="cls-2" d="M234.13,69.49h38.49v3.33H234.13Zm37.3-30.39v3.25H235.56V39.1h16.19V29l3.81.32c-.08.32-.24.56-.87.71v9.13l16.74-.08Zm-27.38,6a85.67,85.67,0,0,1,4,20.95,16.86,16.86,0,0,0-2.94.71,85.06,85.06,0,0,0-3.81-20.87Zm22.38.63a1.31,1.31,0,0,1-1,.71,175.69,175.69,0,0,1-5.63,21.66l-2.54-.87a168.58,168.58,0,0,0,5.16-22.54Z"/><path class="cls-2" d="M314.83,47H298.25C301,58.86,306.5,68,315.55,72A14.32,14.32,0,0,0,313.4,75c-8.89-4.28-14.28-13-17.38-25-2,9.84-6.59,19.52-17.54,25a13.67,13.67,0,0,0-2.06-2.86C287.61,66.87,291.82,57,293.49,47H277.06V43.54H294c.56-5.16.48-10.24.56-14.52l4,.24c-.08.48-.4.71-1,.87-.08,3.89-.08,8.57-.56,13.41h17.93L314.83,47Z"/><path class="cls-2" d="M357.36,58.22v3.09H339.75v9.6c0,4.13-2.06,4.21-9.92,4.21a18.37,18.37,0,0,0-1.27-3.25c2.14.08,4,.16,5.48.16,2.46,0,2.78,0,2.78-1.11V61.4H319.43V58.3h17.38V54l2,.16A36.22,36.22,0,0,0,345,49.49H326.5V46.56H348l.48-.16,2.22,1.67a1.23,1.23,0,0,1-.63.48,45.09,45.09,0,0,1-10.32,8.17v1.75h17.62v-.24Zm-34.2-17.77v8h-2.7v-11h6.67a37.36,37.36,0,0,0-3.81-6.51l2.38-1.35A34.29,34.29,0,0,1,330,36.64l-1.27.71h9a42,42,0,0,0-3.33-7.62l2.46-1.11a31.18,31.18,0,0,1,3.57,7.94l-1.51.71h7.46a66.81,66.81,0,0,0,4.92-8.09c2.7,1.11,3,1.35,3.33,1.67a.75.75,0,0,1-.87.4c-1,1.75-2.62,4.13-4,6.11h6.9v11h-2.78V40.45Z"/><path class="cls-2" d="M382,57.67l1.51,15.55-3.09.4-1.43-15.55L363,60.44l-.4-3.25,16-2.38-1.11-11.19-13.33,2.06-.4-3.33,13.41-2-1-9.84,4.13-.16a1.34,1.34,0,0,1-1,1.11l.79,8.41,12.93-2,.32,3.33-12.93,2,1.11,11.11L397.6,52l.4,3.25Z"/><path class="cls-2" d="M432.59,47.11c-.16.16-.32.32-.48.32a44.19,44.19,0,0,1-7.62,13.73,9.09,9.09,0,0,0-2.14-1.67,35,35,0,0,0,6.35-10.55L416.8,52l3.89,21.19-2.54.63-3.89-21.19-9.68,2.54L404,52.43l9.84-2.54L412,39.57l3.49-.4c0,.4-.24.71-.79,1l1.59,9,14-3.49.32-.24Z"/><path class="cls-2" d="M442.83,57.83V33.7l4,.32c-.08.48-.32.79-1,.87V57.83Zm23.65-26c-.08.48-.32.71-1,.87V48.46c0,10.4-3.09,19.92-15.24,25.39a13.83,13.83,0,0,0-2.22-2.7c11.74-5.08,14.36-13.57,14.36-22.77V31.48Z"/><path class="cls-2" d="M509.16,34.89a1.72,1.72,0,0,1-.56.48,42.92,42.92,0,0,1-10.08,15.87,23.1,23.1,0,0,0-2.62-2.06,30,30,0,0,0,8.49-12.3H474V33.54h32.06l.48-.24Zm-16.58,9a1.2,1.2,0,0,1-1,.87c-1.27,11.66-4.68,22.85-13.41,28.73a24.48,24.48,0,0,0-2.54-2.3c8.65-5.55,11.74-15.87,12.78-27.85Z"/><path class="cls-2" d="M547.81,41.72a1.27,1.27,0,0,1-.71.56c-1.9,5.32-5.24,12.06-8.89,16.19a20.4,20.4,0,0,0-2.54-1.75,36.35,36.35,0,0,0,7.3-12.3L526.7,49.33V62.19c0,4.84,2.54,6.51,5.87,6.51h6.9a55.5,55.5,0,0,0,6.35-.56c0,1.11.08,2.46.08,3.49a56.59,56.59,0,0,1-6.27.4h-7.06c-5.32,0-8.89-2.94-8.89-9.76V50.21L513,53.46l-.71-3.33,11.43-3.33V31.72l4.13.16a1.1,1.1,0,0,1-1,1V45.76l17.93-5.4.48-.4Z"/><path class="cls-2" d="M555.58,34.42a50.61,50.61,0,0,1,12.7,6.74l-1.59,3.09a52.79,52.79,0,0,0-12.38-6.9Zm-.16,34.36c15.08-5.48,25.08-15.31,30.23-29a15.68,15.68,0,0,0,2.78,2.06,52,52,0,0,1-30.07,29.76,1.84,1.84,0,0,1-.56,1.11Z"/><path class="cls-2" d="M623,38.78a.84.84,0,0,1-.48.56,72.31,72.31,0,0,1-6.27,16.43c1.83,1.27,3.89,2.78,5.48,4.13l-1.75,3.25c-1.51-1.35-3.73-3-5.48-4.28a42.26,42.26,0,0,1-15.31,15.08,8.91,8.91,0,0,0-2.3-2.54,41.73,41.73,0,0,0,15-14.28A73.62,73.62,0,0,0,602.48,52l1.59-2.78a61.35,61.35,0,0,1,9.52,5A54.85,54.85,0,0,0,618.75,41H604.31a53.23,53.23,0,0,1-9.84,13.65A23,23,0,0,0,592,52.43c5.55-4.92,10.87-13.89,13.41-22.38l4,1.11a.9.9,0,0,1-1.11.63c-.63,1.67-1.59,4-2.38,5.87H620.1l.56-.16Z"/><path class="cls-2" d="M630.89,49.33h35.47v3.49H632.48a1.89,1.89,0,0,1-1.35,1Z"/><rect class="cls-1" x="271.43" y="37.99" width="1.19" height="1.35"/><rect class="cls-1" x="357.36" y="57.27" width="1.19" height="0.95"/></g></g></svg>